<svg xmlns="http://www.w3.org/2000/svg" xmlns:xlink="http://www.w3.org/1999/xlink" width="356" zoomAndPan="magnify" viewBox="0 0 267 258.74999" height="345" preserveAspectRatio="xMidYMid meet" version="1.0"><defs><clipPath id="f400ff0027"><path d="M 0.128906 82 L 266.871094 82 L 266.871094 257.75 L 0.128906 257.75 Z M 0.128906 82 " clip-rule="nonzero"/></clipPath></defs><g clip-path="url(#f400ff0027)"><path fill="#109ea4" d="M 41.792969 82.890625 L 62.625 82.890625 C 73.566406 102.675781 92.597656 117.511719 115.675781 122.605469 L 115.675781 124.253906 C 104.585938 130.246094 98.144531 141.488281 98.144531 154.824219 C 98.144531 173.558594 114.476562 190.046875 133.363281 190.046875 C 152.25 190.046875 168.585938 173.5625 168.585938 154.824219 C 168.585938 141.488281 161.992188 130.246094 151.050781 124.253906 L 151.050781 122.605469 C 173.984375 117.511719 193.164062 102.675781 204.105469 82.890625 L 224.9375 82.890625 C 247.867188 82.890625 266.601562 101.625 266.601562 124.554688 C 266.601562 147.488281 247.867188 166.21875 224.9375 166.21875 L 175.035156 166.21875 L 175.035156 216.121094 C 175.035156 239.054688 156.300781 257.785156 133.371094 257.785156 C 110.4375 257.785156 91.707031 239.054688 91.707031 216.121094 L 91.707031 166.21875 L 41.792969 166.21875 C 18.859375 166.21875 0.128906 147.488281 0.128906 124.554688 C 0.128906 101.625 18.859375 82.890625 41.792969 82.890625 Z M 41.792969 82.890625 " fill-opacity="1" fill-rule="evenodd"/></g><path fill="#109ea4" d="M 133.359375 0.015625 C 157.492188 0.015625 176.96875 19.5 176.96875 43.625 C 176.96875 67.75 157.484375 87.234375 133.359375 87.234375 C 109.234375 87.234375 89.75 67.75 89.75 43.625 C 89.75 19.5 109.230469 0.015625 133.359375 0.015625 Z M 133.359375 0.015625 " fill-opacity="1" fill-rule="evenodd"/><path fill="#545454" d="M 203.796875 43.625 C 203.796875 80.046875 176.074219 110.167969 140.554688 113.765625 L 140.554688 131.148438 C 150.742188 134.144531 158.085938 142.386719 158.085938 154.824219 C 158.085938 167.117188 146.996094 179.554688 133.359375 179.554688 C 119.722656 179.554688 108.632812 167.117188 108.632812 154.824219 C 108.632812 142.386719 115.976562 134.144531 126.164062 131.148438 L 126.164062 113.765625 C 90.644531 110.167969 62.921875 80.046875 62.921875 43.625 L 81.65625 43.625 C 81.65625 47.222656 82.101562 50.820312 82.855469 54.121094 L 77.757812 54.121094 C 82.707031 80.34375 105.636719 100.277344 133.359375 100.277344 C 160.933594 100.277344 184.015625 80.34375 188.960938 54.121094 L 183.863281 54.121094 C 184.617188 50.820312 184.914062 47.222656 184.914062 43.625 Z M 134.558594 143.4375 L 132.160156 143.4375 C 126.464844 144.035156 121.972656 148.679688 121.972656 154.824219 C 121.972656 160.96875 127.066406 166.214844 133.359375 166.214844 C 139.652344 166.214844 144.75 160.96875 144.75 154.824219 C 144.75 148.679688 140.253906 144.039062 134.558594 143.4375 Z M 134.558594 143.4375 " fill-opacity="1" fill-rule="evenodd"/></svg>