<svg xmlns="http://www.w3.org/2000/svg" xmlns:xlink="http://www.w3.org/1999/xlink" width="282" zoomAndPan="magnify" viewBox="0 0 211.5 84.749999" height="113" preserveAspectRatio="xMidYMid meet" version="1.0"><defs><g/><clipPath id="005ff3f6d6"><path d="M 0.0625 27 L 86.804688 27 L 86.804688 84.5 L 0.0625 84.5 Z M 0.0625 27 " clip-rule="nonzero"/></clipPath></defs><g fill="#545454" fill-opacity="1"><g transform="translate(98.055199, 36.249148)"><g><path d="M 15.9375 -8.5 C 15.9375 -6.625 15.578125 -5.054688 14.859375 -3.796875 C 14.140625 -2.535156 13.097656 -1.585938 11.734375 -0.953125 C 10.367188 -0.316406 8.734375 0 6.828125 0 L 2.09375 0 L 2.09375 -16.671875 L 7.328125 -16.671875 C 9.078125 -16.671875 10.59375 -16.359375 11.875 -15.734375 C 13.164062 -15.117188 14.164062 -14.203125 14.875 -12.984375 C 15.582031 -11.773438 15.9375 -10.28125 15.9375 -8.5 Z M 12.265625 -8.40625 C 12.265625 -9.632812 12.082031 -10.644531 11.71875 -11.4375 C 11.351562 -12.238281 10.816406 -12.828125 10.109375 -13.203125 C 9.410156 -13.585938 8.546875 -13.78125 7.515625 -13.78125 L 5.640625 -13.78125 L 5.640625 -2.921875 L 7.15625 -2.921875 C 8.875 -2.921875 10.15625 -3.378906 11 -4.296875 C 11.84375 -5.222656 12.265625 -6.59375 12.265625 -8.40625 Z M 12.265625 -8.40625 "/></g></g></g><g fill="#545454" fill-opacity="1"><g transform="translate(115.812091, 36.249148)"><g><path d="M 17.234375 -8.359375 C 17.234375 -7.078125 17.070312 -5.910156 16.75 -4.859375 C 16.4375 -3.804688 15.953125 -2.898438 15.296875 -2.140625 C 14.648438 -1.378906 13.828125 -0.789062 12.828125 -0.375 C 11.835938 0.03125 10.660156 0.234375 9.296875 0.234375 C 7.929688 0.234375 6.75 0.03125 5.75 -0.375 C 4.757812 -0.789062 3.9375 -1.378906 3.28125 -2.140625 C 2.632812 -2.898438 2.148438 -3.804688 1.828125 -4.859375 C 1.515625 -5.910156 1.359375 -7.085938 1.359375 -8.390625 C 1.359375 -10.109375 1.640625 -11.609375 2.203125 -12.890625 C 2.773438 -14.171875 3.648438 -15.164062 4.828125 -15.875 C 6.003906 -16.582031 7.5 -16.9375 9.3125 -16.9375 C 11.125 -16.9375 12.613281 -16.582031 13.78125 -15.875 C 14.945312 -15.164062 15.8125 -14.171875 16.375 -12.890625 C 16.945312 -11.609375 17.234375 -10.097656 17.234375 -8.359375 Z M 5.0625 -8.359375 C 5.0625 -7.191406 5.207031 -6.1875 5.5 -5.34375 C 5.789062 -4.507812 6.25 -3.863281 6.875 -3.40625 C 7.5 -2.957031 8.304688 -2.734375 9.296875 -2.734375 C 10.296875 -2.734375 11.109375 -2.957031 11.734375 -3.40625 C 12.359375 -3.863281 12.8125 -4.507812 13.09375 -5.34375 C 13.382812 -6.1875 13.53125 -7.191406 13.53125 -8.359375 C 13.53125 -10.109375 13.203125 -11.484375 12.546875 -12.484375 C 11.890625 -13.492188 10.8125 -14 9.3125 -14 C 8.320312 -14 7.507812 -13.769531 6.875 -13.3125 C 6.25 -12.863281 5.789062 -12.21875 5.5 -11.375 C 5.207031 -10.53125 5.0625 -9.523438 5.0625 -8.359375 Z M 5.0625 -8.359375 "/></g></g></g><g fill="#545454" fill-opacity="1"><g transform="translate(134.869121, 36.249148)"><g><path d="M 9.1875 -13.96875 C 8.507812 -13.96875 7.910156 -13.835938 7.390625 -13.578125 C 6.867188 -13.316406 6.429688 -12.9375 6.078125 -12.4375 C 5.722656 -11.945312 5.453125 -11.351562 5.265625 -10.65625 C 5.085938 -9.957031 5 -9.171875 5 -8.296875 C 5 -7.117188 5.144531 -6.113281 5.4375 -5.28125 C 5.726562 -4.445312 6.179688 -3.8125 6.796875 -3.375 C 7.410156 -2.9375 8.207031 -2.71875 9.1875 -2.71875 C 9.863281 -2.71875 10.539062 -2.789062 11.21875 -2.9375 C 11.894531 -3.09375 12.632812 -3.3125 13.4375 -3.59375 L 13.4375 -0.625 C 12.695312 -0.320312 11.96875 -0.101562 11.25 0.03125 C 10.539062 0.164062 9.738281 0.234375 8.84375 0.234375 C 7.125 0.234375 5.710938 -0.117188 4.609375 -0.828125 C 3.503906 -1.546875 2.6875 -2.546875 2.15625 -3.828125 C 1.625 -5.109375 1.359375 -6.601562 1.359375 -8.3125 C 1.359375 -9.570312 1.53125 -10.726562 1.875 -11.78125 C 2.21875 -12.832031 2.71875 -13.738281 3.375 -14.5 C 4.039062 -15.269531 4.859375 -15.863281 5.828125 -16.28125 C 6.796875 -16.707031 7.914062 -16.921875 9.1875 -16.921875 C 10.007812 -16.921875 10.835938 -16.8125 11.671875 -16.59375 C 12.503906 -16.382812 13.300781 -16.097656 14.0625 -15.734375 L 12.921875 -12.859375 C 12.296875 -13.160156 11.664062 -13.421875 11.03125 -13.640625 C 10.40625 -13.859375 9.789062 -13.96875 9.1875 -13.96875 Z M 9.1875 -13.96875 "/></g></g></g><g fill="#545454" fill-opacity="1"><g transform="translate(150.219621, 36.249148)"><g><path d="M 8.53125 0 L 5 0 L 5 -13.734375 L 0.46875 -13.734375 L 0.46875 -16.671875 L 13.0625 -16.671875 L 13.0625 -13.734375 L 8.53125 -13.734375 Z M 8.53125 0 "/></g></g></g><g fill="#545454" fill-opacity="1"><g transform="translate(164.212953, 36.249148)"><g><path d="M 17.234375 -8.359375 C 17.234375 -7.078125 17.070312 -5.910156 16.75 -4.859375 C 16.4375 -3.804688 15.953125 -2.898438 15.296875 -2.140625 C 14.648438 -1.378906 13.828125 -0.789062 12.828125 -0.375 C 11.835938 0.03125 10.660156 0.234375 9.296875 0.234375 C 7.929688 0.234375 6.75 0.03125 5.75 -0.375 C 4.757812 -0.789062 3.9375 -1.378906 3.28125 -2.140625 C 2.632812 -2.898438 2.148438 -3.804688 1.828125 -4.859375 C 1.515625 -5.910156 1.359375 -7.085938 1.359375 -8.390625 C 1.359375 -10.109375 1.640625 -11.609375 2.203125 -12.890625 C 2.773438 -14.171875 3.648438 -15.164062 4.828125 -15.875 C 6.003906 -16.582031 7.5 -16.9375 9.3125 -16.9375 C 11.125 -16.9375 12.613281 -16.582031 13.78125 -15.875 C 14.945312 -15.164062 15.8125 -14.171875 16.375 -12.890625 C 16.945312 -11.609375 17.234375 -10.097656 17.234375 -8.359375 Z M 5.0625 -8.359375 C 5.0625 -7.191406 5.207031 -6.1875 5.5 -5.34375 C 5.789062 -4.507812 6.25 -3.863281 6.875 -3.40625 C 7.5 -2.957031 8.304688 -2.734375 9.296875 -2.734375 C 10.296875 -2.734375 11.109375 -2.957031 11.734375 -3.40625 C 12.359375 -3.863281 12.8125 -4.507812 13.09375 -5.34375 C 13.382812 -6.1875 13.53125 -7.191406 13.53125 -8.359375 C 13.53125 -10.109375 13.203125 -11.484375 12.546875 -12.484375 C 11.890625 -13.492188 10.8125 -14 9.3125 -14 C 8.320312 -14 7.507812 -13.769531 6.875 -13.3125 C 6.25 -12.863281 5.789062 -12.21875 5.5 -11.375 C 5.207031 -10.53125 5.0625 -9.523438 5.0625 -8.359375 Z M 5.0625 -8.359375 "/></g></g></g><g fill="#545454" fill-opacity="1"><g transform="translate(183.269983, 36.249148)"><g><path d="M 6.953125 -16.671875 C 8.472656 -16.671875 9.722656 -16.488281 10.703125 -16.125 C 11.691406 -15.757812 12.425781 -15.207031 12.90625 -14.46875 C 13.382812 -13.738281 13.625 -12.8125 13.625 -11.6875 C 13.625 -10.925781 13.476562 -10.257812 13.1875 -9.6875 C 12.894531 -9.113281 12.515625 -8.628906 12.046875 -8.234375 C 11.578125 -7.835938 11.066406 -7.515625 10.515625 -7.265625 L 15.421875 0 L 11.5 0 L 7.515625 -6.40625 L 5.640625 -6.40625 L 5.640625 0 L 2.09375 0 L 2.09375 -16.671875 Z M 6.703125 -13.78125 L 5.640625 -13.78125 L 5.640625 -9.265625 L 6.78125 -9.265625 C 7.945312 -9.265625 8.78125 -9.460938 9.28125 -9.859375 C 9.789062 -10.253906 10.046875 -10.832031 10.046875 -11.59375 C 10.046875 -12.382812 9.773438 -12.945312 9.234375 -13.28125 C 8.691406 -13.613281 7.847656 -13.78125 6.703125 -13.78125 Z M 6.703125 -13.78125 "/></g></g></g><g fill="#109ea4" fill-opacity="1"><g transform="translate(100.251955, 58.640772)"><g><path d="M 7.265625 -2.765625 C 7.265625 -2.148438 7.113281 -1.625 6.8125 -1.1875 C 6.507812 -0.757812 6.082031 -0.429688 5.53125 -0.203125 C 4.988281 0.0234375 4.34375 0.140625 3.59375 0.140625 C 3.207031 0.140625 2.835938 0.117188 2.484375 0.078125 C 2.128906 0.046875 1.804688 -0.00390625 1.515625 -0.078125 C 1.222656 -0.148438 0.96875 -0.238281 0.75 -0.34375 L 0.75 -1.5 C 1.101562 -1.351562 1.535156 -1.21875 2.046875 -1.09375 C 2.554688 -0.96875 3.085938 -0.90625 3.640625 -0.90625 C 4.160156 -0.90625 4.597656 -0.972656 4.953125 -1.109375 C 5.316406 -1.242188 5.59375 -1.441406 5.78125 -1.703125 C 5.96875 -1.972656 6.0625 -2.289062 6.0625 -2.65625 C 6.0625 -3.007812 5.984375 -3.304688 5.828125 -3.546875 C 5.671875 -3.785156 5.410156 -4.003906 5.046875 -4.203125 C 4.691406 -4.398438 4.203125 -4.609375 3.578125 -4.828125 C 3.140625 -4.984375 2.75 -5.15625 2.40625 -5.34375 C 2.070312 -5.53125 1.789062 -5.742188 1.5625 -5.984375 C 1.34375 -6.222656 1.171875 -6.492188 1.046875 -6.796875 C 0.929688 -7.109375 0.875 -7.46875 0.875 -7.875 C 0.875 -8.425781 1.015625 -8.898438 1.296875 -9.296875 C 1.578125 -9.691406 1.96875 -9.992188 2.46875 -10.203125 C 2.96875 -10.410156 3.539062 -10.515625 4.1875 -10.515625 C 4.75 -10.515625 5.265625 -10.460938 5.734375 -10.359375 C 6.203125 -10.253906 6.632812 -10.117188 7.03125 -9.953125 L 6.640625 -8.90625 C 6.273438 -9.0625 5.878906 -9.191406 5.453125 -9.296875 C 5.035156 -9.398438 4.609375 -9.453125 4.171875 -9.453125 C 3.722656 -9.453125 3.34375 -9.382812 3.03125 -9.25 C 2.726562 -9.125 2.492188 -8.941406 2.328125 -8.703125 C 2.171875 -8.472656 2.09375 -8.195312 2.09375 -7.875 C 2.09375 -7.507812 2.171875 -7.203125 2.328125 -6.953125 C 2.484375 -6.710938 2.726562 -6.5 3.0625 -6.3125 C 3.40625 -6.125 3.851562 -5.929688 4.40625 -5.734375 C 5.019531 -5.515625 5.539062 -5.28125 5.96875 -5.03125 C 6.394531 -4.78125 6.71875 -4.472656 6.9375 -4.109375 C 7.15625 -3.753906 7.265625 -3.304688 7.265625 -2.765625 Z M 7.265625 -2.765625 "/></g></g></g><g fill="#109ea4" fill-opacity="1"><g transform="translate(108.949272, 58.640772)"><g><path d="M 7.921875 0 L 6.640625 -3.296875 L 2.484375 -3.296875 L 1.21875 0 L 0 0 L 4.0625 -10.421875 L 5.140625 -10.421875 L 9.171875 0 Z M 6.28125 -4.359375 L 5.078125 -7.640625 C 5.046875 -7.722656 5 -7.859375 4.9375 -8.046875 C 4.875 -8.242188 4.804688 -8.445312 4.734375 -8.65625 C 4.671875 -8.863281 4.617188 -9.03125 4.578125 -9.15625 C 4.523438 -8.96875 4.472656 -8.773438 4.421875 -8.578125 C 4.367188 -8.390625 4.316406 -8.210938 4.265625 -8.046875 C 4.210938 -7.890625 4.164062 -7.753906 4.125 -7.640625 L 2.890625 -4.359375 Z M 6.28125 -4.359375 "/></g></g></g><g fill="#109ea4" fill-opacity="1"><g transform="translate(118.867322, 58.640772)"><g><path d="M 7.921875 0 L 6.640625 -3.296875 L 2.484375 -3.296875 L 1.21875 0 L 0 0 L 4.0625 -10.421875 L 5.140625 -10.421875 L 9.171875 0 Z M 6.28125 -4.359375 L 5.078125 -7.640625 C 5.046875 -7.722656 5 -7.859375 4.9375 -8.046875 C 4.875 -8.242188 4.804688 -8.445312 4.734375 -8.65625 C 4.671875 -8.863281 4.617188 -9.03125 4.578125 -9.15625 C 4.523438 -8.96875 4.472656 -8.773438 4.421875 -8.578125 C 4.367188 -8.390625 4.316406 -8.210938 4.265625 -8.046875 C 4.210938 -7.890625 4.164062 -7.753906 4.125 -7.640625 L 2.890625 -4.359375 Z M 6.28125 -4.359375 "/></g></g></g><g fill="#109ea4" fill-opacity="1"><g transform="translate(128.785372, 58.640772)"><g><path d="M 9.28125 0 L 8.078125 0 L 8.078125 -4.890625 L 2.625 -4.890625 L 2.625 0 L 1.421875 0 L 1.421875 -10.375 L 2.625 -10.375 L 2.625 -5.953125 L 8.078125 -5.953125 L 8.078125 -10.375 L 9.28125 -10.375 Z M 9.28125 0 "/></g></g></g><g fill="#109ea4" fill-opacity="1"><g transform="translate(140.22934, 58.640772)"><g><path d="M 7.1875 0 L 1.421875 0 L 1.421875 -10.375 L 7.1875 -10.375 L 7.1875 -9.3125 L 2.625 -9.3125 L 2.625 -5.953125 L 6.9375 -5.953125 L 6.9375 -4.90625 L 2.625 -4.90625 L 2.625 -1.0625 L 7.1875 -1.0625 Z M 7.1875 0 "/></g></g></g><g fill="#109ea4" fill-opacity="1"><g transform="translate(149.033116, 58.640772)"><g><path d="M 1.421875 -10.375 L 4.359375 -10.375 C 5.648438 -10.375 6.625 -10.175781 7.28125 -9.78125 C 7.9375 -9.394531 8.265625 -8.738281 8.265625 -7.8125 C 8.265625 -7.40625 8.1875 -7.039062 8.03125 -6.71875 C 7.875 -6.40625 7.648438 -6.144531 7.359375 -5.9375 C 7.066406 -5.726562 6.703125 -5.582031 6.265625 -5.5 L 6.265625 -5.4375 C 6.722656 -5.363281 7.125 -5.234375 7.46875 -5.046875 C 7.820312 -4.859375 8.097656 -4.59375 8.296875 -4.25 C 8.492188 -3.90625 8.59375 -3.472656 8.59375 -2.953125 C 8.59375 -2.316406 8.445312 -1.773438 8.15625 -1.328125 C 7.863281 -0.890625 7.445312 -0.554688 6.90625 -0.328125 C 6.363281 -0.109375 5.722656 0 4.984375 0 L 1.421875 0 Z M 2.625 -5.921875 L 4.609375 -5.921875 C 5.515625 -5.921875 6.140625 -6.066406 6.484375 -6.359375 C 6.835938 -6.660156 7.015625 -7.097656 7.015625 -7.671875 C 7.015625 -8.265625 6.804688 -8.691406 6.390625 -8.953125 C 5.972656 -9.210938 5.3125 -9.34375 4.40625 -9.34375 L 2.625 -9.34375 Z M 2.625 -4.90625 L 2.625 -1.03125 L 4.78125 -1.03125 C 5.707031 -1.03125 6.359375 -1.207031 6.734375 -1.5625 C 7.117188 -1.925781 7.3125 -2.414062 7.3125 -3.03125 C 7.3125 -3.425781 7.222656 -3.765625 7.046875 -4.046875 C 6.878906 -4.328125 6.601562 -4.539062 6.21875 -4.6875 C 5.832031 -4.832031 5.316406 -4.90625 4.671875 -4.90625 Z M 2.625 -4.90625 "/></g></g></g><g clip-path="url(#005ff3f6d6)"><path fill="#109ea4" d="M 13.683594 27.09375 L 20.492188 27.09375 C 24.066406 33.558594 30.289062 38.410156 37.835938 40.074219 L 37.835938 40.613281 C 34.210938 42.574219 32.101562 46.246094 32.101562 50.605469 C 32.101562 56.730469 37.441406 62.121094 43.617188 62.121094 C 49.789062 62.121094 55.128906 56.734375 55.128906 50.605469 C 55.128906 46.246094 52.976562 42.574219 49.398438 40.613281 L 49.398438 40.074219 C 56.894531 38.410156 63.164062 33.558594 66.742188 27.09375 L 73.550781 27.09375 C 81.046875 27.09375 87.171875 33.214844 87.171875 40.710938 C 87.171875 48.207031 81.046875 54.332031 73.550781 54.332031 L 57.238281 54.332031 L 57.238281 70.644531 C 57.238281 78.140625 51.113281 84.265625 43.617188 84.265625 C 36.121094 84.265625 30 78.140625 30 70.644531 L 30 54.332031 L 13.683594 54.332031 C 6.183594 54.332031 0.0625 48.207031 0.0625 40.710938 C 0.0625 33.214844 6.183594 27.09375 13.683594 27.09375 Z M 13.683594 27.09375 " fill-opacity="1" fill-rule="evenodd"/></g><path fill="#109ea4" d="M 43.613281 0 C 51.503906 0 57.871094 6.371094 57.871094 14.257812 C 57.871094 22.144531 51.5 28.511719 43.613281 28.511719 C 35.726562 28.511719 29.359375 22.144531 29.359375 14.257812 C 29.359375 6.371094 35.726562 0 43.613281 0 Z M 43.613281 0 " fill-opacity="1" fill-rule="evenodd"/><path fill="#545454" d="M 66.640625 14.257812 C 66.640625 26.160156 57.578125 36.007812 45.96875 37.183594 L 45.96875 42.867188 C 49.296875 43.847656 51.699219 46.542969 51.699219 50.605469 C 51.699219 54.625 48.074219 58.691406 43.613281 58.691406 C 39.15625 58.691406 35.53125 54.625 35.53125 50.605469 C 35.53125 46.542969 37.933594 43.847656 41.261719 42.867188 L 41.261719 37.183594 C 29.652344 36.007812 20.589844 26.160156 20.589844 14.257812 L 26.710938 14.257812 C 26.710938 15.433594 26.859375 16.609375 27.105469 17.6875 L 25.4375 17.6875 C 27.054688 26.257812 34.550781 32.773438 43.613281 32.773438 C 52.628906 32.773438 60.175781 26.257812 61.789062 17.6875 L 60.125 17.6875 C 60.371094 16.609375 60.46875 15.433594 60.46875 14.257812 Z M 44.007812 46.882812 L 43.222656 46.882812 C 41.359375 47.078125 39.890625 48.597656 39.890625 50.605469 C 39.890625 52.617188 41.558594 54.332031 43.613281 54.332031 C 45.671875 54.332031 47.335938 52.617188 47.335938 50.605469 C 47.335938 48.597656 45.871094 47.082031 44.007812 46.882812 Z M 44.007812 46.882812 " fill-opacity="1" fill-rule="evenodd"/></svg>